<svg width="206" height="37" viewBox="0 0 206 37" fill="none" xmlns="http://www.w3.org/2000/svg">
<path d="M68.9594 16.1454H72.9582C74.7804 16.1454 76.1016 16.4061 76.9219 16.9276C77.748 17.4432 78.1611 18.2664 78.1611 19.3972C78.1611 20.1647 77.9795 20.7946 77.6162 21.2868C77.2588 21.7789 76.7813 22.0748 76.1836 22.1744V22.2623C76.9981 22.4439 77.584 22.7838 77.9414 23.2818C78.3046 23.7798 78.4863 24.4419 78.4863 25.268C78.4863 26.4398 78.0615 27.3538 77.2119 28.0101C76.3682 28.6663 75.2198 28.9944 73.7668 28.9944H68.9594V16.1454ZM71.6839 21.234H73.2658C74.0041 21.234 74.5372 21.1198 74.8654 20.8913C75.1993 20.6628 75.3663 20.2849 75.3663 19.7575C75.3663 19.2654 75.1847 18.9138 74.8214 18.7029C74.464 18.4861 73.8957 18.3777 73.1164 18.3777H71.6839V21.234ZM71.6839 23.396V26.7445H73.4592C74.2091 26.7445 74.7628 26.6009 75.1202 26.3139C75.4776 26.0268 75.6563 25.5873 75.6563 24.9956C75.6563 23.9292 74.8946 23.396 73.3713 23.396H71.6839ZM88.4526 28.9944H81.0525V16.1454H88.4526V18.3777H83.777V21.1989H88.1274V23.4312H83.777V26.7445H88.4526V28.9944ZM95.1407 21.4362L97.8212 16.1454H100.757L96.4942 23.9937V28.9944H93.7873V24.0815L89.5248 16.1454H92.4778L95.1407 21.4362ZM114.036 22.5523C114.036 24.6792 113.509 26.3139 112.454 27.4564C111.4 28.5989 109.888 29.1702 107.919 29.1702C105.951 29.1702 104.439 28.5989 103.384 27.4564C102.33 26.3139 101.802 24.6733 101.802 22.5347C101.802 20.3962 102.33 18.7644 103.384 17.6395C104.445 16.5087 105.962 15.9433 107.937 15.9433C109.911 15.9433 111.42 16.5116 112.463 17.6483C113.512 18.7849 114.036 20.4196 114.036 22.5523ZM104.659 22.5523C104.659 23.9878 104.931 25.0688 105.476 25.7953C106.021 26.5219 106.835 26.8851 107.919 26.8851C110.093 26.8851 111.18 25.4408 111.18 22.5523C111.18 19.6579 110.099 18.2107 107.937 18.2107C106.853 18.2107 106.036 18.5769 105.485 19.3093C104.934 20.0358 104.659 21.1168 104.659 22.5523ZM128.098 28.9944H124.635L119.046 19.2742H118.967C119.078 20.9909 119.134 22.2154 119.134 22.9478V28.9944H116.699V16.1454H120.136L125.716 25.769H125.778C125.69 24.0991 125.646 22.9185 125.646 22.2271V16.1454H128.098V28.9944ZM142.002 22.4469C142.002 24.562 141.398 26.182 140.191 27.307C138.99 28.4319 137.253 28.9944 134.98 28.9944H131.341V16.1454H135.375C137.473 16.1454 139.101 16.6991 140.262 17.8065C141.422 18.9138 142.002 20.4606 142.002 22.4469ZM139.172 22.5172C139.172 19.7575 137.953 18.3777 135.516 18.3777H134.066V26.7445H135.234C137.859 26.7445 139.172 25.3354 139.172 22.5172ZM154.78 28.9944L151.687 18.9138H151.608C151.719 20.9645 151.775 22.3326 151.775 23.0181V28.9944H149.34V16.1454H153.049L156.09 25.9711H156.143L159.368 16.1454H163.077V28.9944H160.537V22.9127C160.537 22.6256 160.54 22.2945 160.546 21.9195C160.557 21.5446 160.598 20.5485 160.669 18.9314H160.59L157.276 28.9944H154.78ZM176.778 16.1454V24.4595C176.778 25.4086 176.564 26.2406 176.137 26.9554C175.715 27.6702 175.103 28.2181 174.3 28.5989C173.497 28.9797 172.548 29.1702 171.452 29.1702C169.8 29.1702 168.517 28.7483 167.603 27.9046C166.689 27.055 166.232 25.8949 166.232 24.4243V16.1454H168.948V24.0112C168.948 25.0014 169.147 25.7279 169.545 26.1908C169.944 26.6537 170.603 26.8851 171.523 26.8851C172.413 26.8851 173.058 26.6537 173.456 26.1908C173.86 25.7221 174.063 24.9897 174.063 23.9937V16.1454H176.778ZM187.509 25.4262C187.509 26.5863 187.09 27.5003 186.252 28.1683C185.42 28.8362 184.26 29.1702 182.772 29.1702C181.401 29.1702 180.188 28.9124 179.134 28.3968V25.8656C180.001 26.2523 180.733 26.5248 181.331 26.683C181.934 26.8412 182.485 26.9203 182.983 26.9203C183.581 26.9203 184.038 26.806 184.354 26.5775C184.676 26.349 184.837 26.0092 184.837 25.558C184.837 25.3061 184.767 25.0834 184.627 24.8901C184.486 24.6909 184.278 24.5005 184.003 24.3188C183.733 24.1372 183.179 23.8472 182.341 23.4488C181.556 23.0796 180.968 22.7252 180.575 22.3853C180.182 22.0455 179.869 21.65 179.635 21.1989C179.4 20.7477 179.283 20.2204 179.283 19.6169C179.283 18.4803 179.667 17.5867 180.434 16.9364C181.208 16.286 182.274 15.9608 183.633 15.9608C184.301 15.9608 184.937 16.0399 185.541 16.1981C186.15 16.3563 186.786 16.579 187.448 16.8661L186.569 18.9841C185.883 18.7029 185.315 18.5066 184.864 18.3953C184.419 18.284 183.979 18.2283 183.546 18.2283C183.03 18.2283 182.634 18.3484 182.359 18.5886C182.084 18.8289 181.946 19.1423 181.946 19.529C181.946 19.7693 182.002 19.9802 182.113 20.1618C182.224 20.3376 182.4 20.5104 182.64 20.6803C182.886 20.8444 183.464 21.1432 184.372 21.5768C185.573 22.151 186.396 22.7281 186.841 23.3081C187.287 23.8823 187.509 24.5884 187.509 25.4262ZM189.838 28.9944V16.1454H192.563V28.9944H189.838ZM201.255 18.2283C200.229 18.2283 199.435 18.615 198.873 19.3884C198.31 20.156 198.029 21.2282 198.029 22.6051C198.029 25.4701 199.104 26.9027 201.255 26.9027C202.157 26.9027 203.25 26.6771 204.533 26.226V28.511C203.478 28.9504 202.3 29.1702 201 29.1702C199.131 29.1702 197.701 28.6048 196.711 27.474C195.721 26.3373 195.226 24.7085 195.226 22.5875C195.226 21.2516 195.469 20.0827 195.955 19.0808C196.441 18.073 197.139 17.3026 198.047 16.7694C198.961 16.2304 200.03 15.9608 201.255 15.9608C202.503 15.9608 203.756 16.2626 205.016 16.8661L204.137 19.0808C203.657 18.8523 203.173 18.6531 202.687 18.4832C202.201 18.3133 201.723 18.2283 201.255 18.2283Z" fill="#353535"/>
<path d="M0 0H37V37H0V0Z" fill="#54C1FB"/>
<path d="M18 3H40V25H18V3Z" fill="#2C3D7A"/>
</svg>

